<?xml version="1.0" encoding="utf-8"?>
<!-- Generator: Adobe Illustrator 16.0.0, SVG Export Plug-In . SVG Version: 6.00 Build 0)  -->
<svg version="1.2" baseProfile="tiny" id="Layer_1" xmlns="http://www.w3.org/2000/svg" xmlns:xlink="http://www.w3.org/1999/xlink"
	 x="0px" y="0px" width="1310px" height="785px" viewBox="0 0 1310 785" overflow="scroll" xml:space="preserve">
<g>
	<path fill="#5FC5F1" d="M654.995,2.901c-93.99,0-170.173,76.002-170.173,169.751c0,93.751,76.184,169.744,170.173,169.744h170.179
		V172.652C825.174,78.903,748.973,2.901,654.995,2.901 M722.283,239.761h-67.288c-37.163,0-67.274-30.049-67.274-67.108
		c0-37.073,30.111-67.146,67.274-67.146c37.179,0,67.288,30.072,67.288,67.146V239.761z"/>
	<path fill="#1C1A31" d="M53.142,393.49L2.127,606.839h36.477l10.511-41.946h77.585l11.755,41.946h36.477L124.532,393.49H53.142z
		 M81.26,426.774h14.522l23.804,103.291H56.849L81.26,426.774z"/>
	<path fill="#1C1A31" d="M299.825,455.152l-1.253,30.518c0,0-24.412-2.775-36.149-2.775c-31.533,0-38.646,11.706-38.646,45.018
		c0,36.996,6.482,49.004,38.947,49.004c11.747,0,36.16-2.765,36.16-2.765l0.941,30.534c0,0-31.542,5.533-47.922,5.533
		c-46.978,0-63.988-23.713-63.988-82.307c0-55.191,18.861-78.63,64.931-78.63C269.521,449.282,299.825,455.152,299.825,455.152"/>
	<path fill="#1C1A31" d="M453.443,452.99v153.842h-35.226v-7.722c0,0-24.123,11.116-40.797,11.116
		c-44.523,0-53.487-22.806-53.487-76.772V452.99h35.232v80.146c0,32.689,1.865,45.343,25.367,45.343
		c13.581,0,33.685-7.095,33.685-7.095V452.99H453.443z"/>
	<path fill="#1C1A31" d="M480.659,606.832V452.99h34.938v8.318c0,0,12.982-7.09,26.892-9.553c5.549-1.238,11.419-2.164,16.068-2.164
		c15.759,0.621,26.882,4.938,34.611,12.951c13.603-5.229,35.55-13.253,53.788-13.253c42.023,0,53.769,23.126,53.769,77.074v80.468
		h-35.232v-66.601c0-41.617-0.598-57.95-25.329-57.95c-15.155,0-33.393,7.399-33.702,7.703c0.933,2.161,2.171,22.825,2.171,36.997
		v79.851h-35.235v-79.237c0-32.689-3.102-45.313-25.359-45.313c-13.597,0-32.13,7.09-32.13,7.09v117.461H480.659z"/>
	<path fill="#1C1A31" d="M777.113,540.231c-13.305,1.238-20.408,7.093-20.408,19.74c0,12.95,5.566,20.042,15.781,20.042
		c16.383,0,38.621-6.167,38.621-6.167v-35.462L777.113,540.231z M846.355,564.9c0.314,10.804,3.693,13.872,12.674,15.431
		l-1.248,29.896c-24.111,0-32.143-3.709-41.402-10.804c0,0-26.598,10.804-50.398,10.804c-29.373,0-44.818-18.812-44.818-49.34
		c0-32.982,18.221-44.387,51.617-46.857l38.328-3.088v-9.24c0-12.013-7.414-18.505-19.154-18.505
		c-22.871,0-59.658,2.778-59.658,2.778l-1.238-29.915c0,0,39.859-6.777,62.748-6.777c33.996,0,52.551,14.195,52.551,52.106V564.9z"
		/>
	<path fill="#1C1A31" d="M920.855,484.747v62.902c0,21.27,0.607,29.267,16.074,29.267c8.666,0,25.043-0.916,25.043-0.916
		l1.531,30.208c0,0-20.699,4.323-31.521,4.323c-35.553,0-46.359-13.563-46.359-57.962v-67.822H866.16v-31.751h19.463v-44.71h35.232
		v44.71h41.727v31.751H920.855z"/>
	<path fill="#1C1A31" d="M987.008,428.021h35.223v-37.299h-35.223V428.021z M987.008,606.839h35.223V452.996h-35.223V606.839z"/>
	<path fill="#1C1A31" d="M1156.396,455.152l-1.227,30.518c0,0-24.426-2.775-36.172-2.775c-31.508,0-38.637,11.706-38.637,45.018
		c0,36.996,6.5,49.004,38.941,49.004c11.758,0,36.156-2.765,36.156-2.765l0.938,30.534c0,0-31.512,5.533-47.9,5.533
		c-46.988,0-63.992-23.713-63.992-82.307c0-55.191,18.859-78.63,64.916-78.63C1126.113,449.282,1156.396,455.152,1156.396,455.152"
		/>
	<path fill="#1C1A31" d="M1225.955,540.231c-13.281,1.238-20.408,7.093-20.408,19.74c0,12.95,5.584,20.042,15.781,20.042
		c16.379,0,38.621-6.167,38.621-6.167v-35.462L1225.955,540.231z M1295.199,564.9c0.297,10.804,3.709,13.872,12.674,15.431
		l-1.254,29.896c-24.105,0-32.139-3.709-41.414-10.804c0,0-26.58,10.804-50.383,10.804c-29.355,0-44.82-18.812-44.82-49.34
		c0-32.982,18.25-44.387,51.641-46.857l38.307-3.088v-9.24c0-12.013-7.406-18.505-19.152-18.505
		c-22.873,0-59.664,2.778-59.664,2.778l-1.232-29.915c0,0,39.875-6.777,62.742-6.777c34,0,52.557,14.195,52.557,52.106V564.9z"/>
	<polygon fill="#5FC5F1" points="303.222,714.154 280.613,714.154 280.613,702.434 339.707,702.434 339.707,714.154 
		317.098,714.154 317.098,780.655 303.222,780.655 	"/>
	<path fill="#5FC5F1" d="M352.146,696.211h13.755v21.771l-0.478,11.364c2.466-2.311,5.199-4.362,8.191-6.147
		c2.99-1.812,6.514-2.703,10.59-2.703c6.292,0,10.887,2.017,13.749,6.035c2.877,4.027,4.307,9.793,4.307,17.291v36.834h-13.749
		v-35.033c0-4.871-0.727-8.301-2.162-10.296c-1.437-1.994-3.787-2.989-7.058-2.989c-2.542,0-4.808,0.624-6.754,1.85
		c-1.953,1.243-4.17,3.055-6.637,5.448v41.021h-13.755V696.211z"/>
	<path fill="#5FC5F1" d="M455.013,746.092c0-4.704-0.981-8.372-2.935-11.004c-1.953-2.625-4.969-3.94-9.035-3.94
		c-3.502,0-6.572,1.254-9.203,3.757c-2.632,2.513-4.267,6.244-4.904,11.188H455.013z M415.656,751.357
		c0-4.785,0.758-9.092,2.275-12.921c1.515-3.825,3.523-7.058,6.036-9.688c2.52-2.631,5.397-4.664,8.676-6.103
		c3.27-1.432,6.611-2.15,10.039-2.15c3.998,0,7.497,0.678,10.528,2.041c3.03,1.353,5.574,3.263,7.607,5.742
		c2.033,2.472,3.564,5.414,4.593,8.843c1.044,3.43,1.564,7.179,1.564,11.252c0,2.712-0.208,4.856-0.598,6.461h-37.323
		c0.64,5.336,2.497,9.442,5.566,12.314c3.063,2.868,6.994,4.307,11.78,4.307c2.552,0,4.929-0.377,7.113-1.14
		c2.202-0.752,4.37-1.814,6.516-3.167l4.664,8.61c-2.783,1.836-5.893,3.351-9.323,4.539c-3.429,1.203-7.017,1.801-10.764,1.801
		c-4.068,0-7.855-0.699-11.366-2.089c-3.517-1.404-6.577-3.405-9.21-6.045c-2.632-2.632-4.682-5.835-6.163-9.635
		C416.39,760.544,415.656,756.229,415.656,751.357"/>
	<path fill="#5FC5F1" d="M502.973,741.785c0-6.388,0.94-12.095,2.814-17.159c1.866-5.072,4.443-9.354,7.713-12.856
		c3.268-3.508,7.096-6.18,11.483-8.021c4.387-1.837,9.099-2.751,14.124-2.751c4.778,0,9.059,1.003,12.848,2.988
		c3.788,1.993,6.922,4.307,9.394,6.948l-7.776,8.61c-2.001-2.001-4.122-3.58-6.404-4.735c-2.265-1.15-4.92-1.725-7.95-1.725
		c-3.278,0-6.235,0.654-8.908,1.972c-2.681,1.315-4.992,3.189-6.946,5.614c-1.946,2.432-3.462,5.404-4.537,8.915
		c-1.077,3.509-1.62,7.455-1.62,11.842c0,8.932,1.938,15.936,5.798,20.99c3.875,5.071,9.115,7.599,15.734,7.599
		c3.508,0,6.562-0.675,9.147-2.032c2.592-1.354,5.008-3.259,7.242-5.743l7.775,8.496c-3.19,3.666-6.827,6.483-10.879,8.427
		c-4.075,1.961-8.58,2.935-13.524,2.935c-5.024,0-9.69-0.874-13.995-2.632c-4.307-1.746-8.056-4.354-11.245-7.783
		c-3.19-3.42-5.702-7.646-7.538-12.671C503.89,753.987,502.973,748.246,502.973,741.785"/>
	<path fill="#5FC5F1" d="M575.344,696.211h13.755v70.1c0,1.674,0.313,2.847,0.959,3.532c0.637,0.678,1.315,1.02,2.034,1.02h0.901
		c0.279,0,0.693-0.096,1.244-0.248l1.801,10.289c-1.842,0.798-4.266,1.195-7.295,1.195c-4.945,0-8.406-1.473-10.408-4.427
		c-1.993-2.949-2.991-6.978-2.991-12.079V696.211z"/>
	<path fill="#5FC5F1" d="M618.645,751.357c0,5.909,1.214,10.63,3.646,14.171c2.433,3.547,5.798,5.334,10.102,5.334
		c4.318,0,7.698-1.787,10.179-5.334c2.464-3.541,3.709-8.262,3.709-14.171c0-5.982-1.245-10.74-3.709-14.298
		c-2.48-3.544-5.861-5.314-10.179-5.314c-4.304,0-7.669,1.771-10.102,5.314C619.859,740.617,618.645,745.375,618.645,751.357
		 M604.524,751.357c0-4.864,0.755-9.22,2.271-13.038c1.516-3.829,3.575-7.068,6.165-9.684c2.602-2.63,5.56-4.647,8.908-6.043
		c3.358-1.396,6.859-2.098,10.525-2.098c3.67,0,7.195,0.702,10.583,2.098c3.399,1.396,6.363,3.413,8.917,6.043
		c2.551,2.615,4.608,5.854,6.155,9.684c1.564,3.818,2.338,8.174,2.338,13.038c0,4.872-0.773,9.21-2.338,13.045
		c-1.547,3.82-3.604,7.053-6.155,9.684c-2.554,2.631-5.519,4.626-8.917,5.979c-3.388,1.358-6.913,2.033-10.583,2.033
		c-3.666,0-7.167-0.675-10.525-2.033c-3.349-1.354-6.307-3.349-8.908-5.979c-2.59-2.631-4.649-5.863-6.165-9.684
		C605.279,760.567,604.524,756.229,604.524,751.357"/>
	<path fill="#5FC5F1" d="M674.025,721.928h13.758v35.051c0,4.865,0.703,8.293,2.15,10.287c1.436,1.996,3.746,2.991,6.938,2.991
		c2.545,0,4.803-0.638,6.756-1.913c1.953-1.286,4.051-3.349,6.275-6.221v-40.195h13.764v58.728h-11.244l-1.078-8.603h-0.367
		c-2.541,3.031-5.316,5.461-8.305,7.295c-2.994,1.834-6.516,2.751-10.588,2.751c-6.309,0-10.881-2.01-13.752-6.044
		c-2.871-4.026-4.307-9.785-4.307-17.28V721.928z"/>
	<path fill="#5FC5F1" d="M752.367,751.236c0,6.381,1.141,11.229,3.414,14.538c2.27,3.301,5.566,4.963,9.863,4.963
		c4.387,0,8.496-2.186,12.332-6.583v-27.391c-2.092-1.836-4.092-3.107-6.045-3.826c-1.965-0.72-3.934-1.077-5.93-1.077
		c-3.826,0-7.055,1.675-9.682,5.028C753.689,740.232,752.367,745.018,752.367,751.236 M738.139,751.357
		c0-4.785,0.689-9.092,2.092-12.921c1.395-3.825,3.246-7.058,5.566-9.688c2.311-2.631,4.969-4.664,7.941-6.103
		c2.998-1.432,6.084-2.15,9.279-2.15c3.348,0,6.186,0.573,8.496,1.737c2.307,1.15,4.617,2.735,6.934,4.72l-0.471-9.439v-21.302
		h13.742v84.444h-11.352l-0.955-6.333h-0.49c-2.145,2.157-4.654,3.995-7.535,5.506c-2.861,1.521-5.893,2.271-9.084,2.271
		c-7.412,0-13.309-2.687-17.648-8.079C740.311,768.647,738.139,761.097,738.139,751.357"/>
	<polygon fill="#5FC5F1" points="836.104,702.434 883.227,702.434 883.227,714.154 849.973,714.154 849.973,734.13 878.082,734.13 
		878.082,745.847 849.973,745.847 849.973,768.933 884.426,768.933 884.426,780.663 836.104,780.663 	"/>
	<path fill="#5FC5F1" d="M914.926,739.046h11.121c5.342,0,9.43-1.126,12.258-3.36c2.83-2.229,4.248-5.581,4.248-10.049
		c0-4.535-1.418-7.687-4.248-9.451c-2.828-1.753-6.916-2.62-12.258-2.62h-11.121V739.046z M943.744,780.663l-16.863-30.621h-11.955
		v30.621h-13.881v-78.229h26.434c4.064,0,7.855,0.397,11.367,1.195c3.506,0.798,6.535,2.094,9.092,3.89
		c2.547,1.796,4.553,4.166,6.041,7.122c1.473,2.951,2.215,6.611,2.215,10.996c0,5.98-1.42,10.807-4.248,14.477
		c-2.832,3.677-6.605,6.3-11.309,7.896l18.658,32.654H943.744z"/>
	<path fill="#5FC5F1" d="M998.529,740.83c11.484,0,17.227-4.744,17.227-14.233c0-4.942-1.436-8.358-4.307-10.225
		c-2.871-1.88-7.178-2.807-12.92-2.807h-11.361v27.265H998.529z M973.293,702.434h26.314c4.307,0,8.277,0.397,11.9,1.195
		c3.629,0.798,6.762,2.161,9.393,4.066c2.643,1.922,4.707,4.411,6.223,7.479c1.516,3.064,2.27,6.877,2.27,11.423
		c0,4.313-0.754,8.055-2.27,11.242c-1.516,3.191-3.607,5.847-6.287,7.952c-2.662,2.122-5.816,3.675-9.449,4.673
		c-3.631,0.998-7.553,1.491-11.779,1.491h-12.439v28.708h-13.875V702.434z"/>
</g>
</svg>
