<?xml version="1.0" encoding="utf-8"?>
<!-- Generator: Adobe Illustrator 18.0.0, SVG Export Plug-In . SVG Version: 6.00 Build 0)  -->
<!DOCTYPE svg PUBLIC "-//W3C//DTD SVG 1.1//EN" "http://www.w3.org/Graphics/SVG/1.1/DTD/svg11.dtd">
<svg version="1.1" id="Layer_1" xmlns="http://www.w3.org/2000/svg" xmlns:xlink="http://www.w3.org/1999/xlink" x="0px" y="0px"
	 viewBox="0 0 150 22" enable-background="new 0 0 150 22" xml:space="preserve">
<path fill="#000" d="M34.8,2.2h6.6L46,21.7h-3.3l-1.1-3.8h-7.1l-1,3.8h-3.3L34.8,2.2 M35.1,14.7h5.8l-2.2-9.4h-1.3L35.1,14.7z"/>
<path fill="#000" d="M57.4,7.9l-0.1,2.8c0,0-2.2-0.3-3.3-0.3c-2.9,0-3.5,1.1-3.5,4.1c0,3.4,0.6,4.5,3.6,4.5
	c1.1,0,3.3-0.3,3.3-0.3l0.1,2.8c0,0-2.9,0.5-4.4,0.5c-4.3,0-5.9-2.2-5.9-7.5c0-5,1.7-7.2,6-7.2C54.7,7.3,57.4,7.9,57.4,7.9"/>
<path fill="#000" d="M71.5,7.7v14h-3.2V21c0,0-2.2,1-3.7,1c-4.1,0-4.9-2.1-4.9-7V7.7h3.2V15c0,3,0.2,4.1,2.3,4.1
	c1.2,0,3.1-0.6,3.1-0.6V7.7H71.5"/>
<path fill="#000" d="M74,21.7v-14h3.2v0.8c0,0,1.2-0.6,2.5-0.9c0.5-0.1,1-0.2,1.5-0.2c1.4,0.1,2.5,0.4,3.2,1.2
	c1.2-0.5,3.3-1.2,4.9-1.2c3.9,0,4.9,2.1,4.9,7v7.3H91v-6.1c0-3.8-0.1-5.3-2.3-5.3c-1.4,0-3.1,0.7-3.1,0.7c0.1,0.2,0.2,2.1,0.2,3.4
	v7.3h-3.2v-7.2c0-3-0.3-4.1-2.3-4.1c-1.2,0-3,0.6-3,0.6v10.7H74"/>
<path fill="#000" d="M107.6,17.8c0,1,0.3,1.3,1.2,1.4l-0.1,2.7c-2.2,0-3-0.3-3.8-1c0,0-2.4,1-4.6,1c-2.7,0-4.1-1.7-4.1-4.5
	c0-3,1.7-4,4.7-4.3l3.5-0.3v-0.8c0-1.1-0.7-1.7-1.8-1.7c-2.1,0-5.5,0.3-5.5,0.3L97,7.9c0,0,3.7-0.6,5.8-0.6c3.1,0,4.8,1.3,4.8,4.7
	V17.8 M101.3,15.6c-1.2,0.1-1.9,0.6-1.9,1.8c0,1.2,0.5,1.8,1.4,1.8c1.5,0,3.5-0.6,3.5-0.6v-3.2L101.3,15.6z"/>
<path fill="#000" d="M114.5,10.5v5.7c0,1.9,0.1,2.7,1.5,2.7c0.8,0,2.3-0.1,2.3-0.1l0.1,2.8c0,0-1.9,0.4-2.9,0.4
	c-3.3,0-4.3-1.2-4.3-5.3v-6.2h-1.8V7.7h1.8V3.6h3.2v4.1h3.8v2.9H114.5"/>
<path fill="#000" d="M120.5,2h3.2v3.4h-3.2V2z M120.5,7.7h3.2v14h-3.2V7.7z"/>
<path fill="#000" d="M136.1,7.9l-0.1,2.8c0,0-2.2-0.3-3.3-0.3c-2.9,0-3.5,1.1-3.5,4.1c0,3.4,0.6,4.5,3.6,4.5
	c1.1,0,3.3-0.3,3.3-0.3l0.1,2.8c0,0-2.9,0.5-4.4,0.5c-4.3,0-5.9-2.2-5.9-7.5c0-5,1.7-7.2,6-7.2C133.3,7.3,136.1,7.9,136.1,7.9"/>
<path fill="#000" d="M148.8,17.8c0,1,0.3,1.3,1.2,1.4l-0.1,2.7c-2.2,0-3-0.3-3.8-1c0,0-2.4,1-4.6,1c-2.7,0-4.1-1.7-4.1-4.5
	c0-3,1.7-4,4.7-4.3l3.5-0.3v-0.8c0-1.1-0.7-1.7-1.8-1.7c-2.1,0-5.5,0.3-5.5,0.3l-0.1-2.7c0,0,3.7-0.6,5.8-0.6c3.1,0,4.8,1.3,4.8,4.7
	V17.8 M142.5,15.6c-1.2,0.1-1.9,0.6-1.9,1.8c0,1.2,0.5,1.8,1.4,1.8c1.5,0,3.5-0.6,3.5-0.6v-3.2L142.5,15.6z"/>
<linearGradient id="SVGID_1_" gradientUnits="userSpaceOnUse" x1="7.2411" y1="21.2312" x2="18.1032" y2="2.4174">
	<stop  offset="0" style="stop-color:#33CCFF"/>
	<stop  offset="1" style="stop-color:#33CCFF"/>
</linearGradient>
<path fill="url(#SVGID_1_)" d="M11,0C4.9,0,0,4.8,0,10.8s4.9,10.8,11,10.8h11V10.8C21.9,4.8,17,0,11,0 M15.3,15.1H11
	c-2.4,0-4.3-1.9-4.3-4.3S8.6,6.5,11,6.5c2.4,0,4.3,1.9,4.3,4.3V15.1z"/>
</svg>
